<!-- Generated from Reader UI/frontend-demo/asset-library/icons.js token: rss -->
<svg fill="none" stroke="#000000" stroke-width="4" stroke-linecap="round" stroke-linejoin="round" xmlns="http://www.w3.org/2000/svg" viewBox="0 0 125.110926 127.947253" preserveAspectRatio="xMidYMid meet"><g transform="translate(-8.889074,135.883147) scale(0.100000,-0.100000)" fill="#000000" stroke="none"><path d="M172 1344 c-15 -12 -25 -34 -29 -61 -12 -87 21 -133 95 -133 53 0 233 -36 241 -48 4 -4 26 -14 51 -22 53 -16 116 -48 144 -72 11 -10 25 -18 32 -18 20 0 154 -125 199 -185 16 -22 35 -43 41 -47 7 -4 22 -27 34 -50 12 -24 25 -45 29 -48 4 -3 20 -36 36 -75 16 -38 32 -72 35 -75 18 -14 50 -191 50 -272 0 -59 3 -66 59 -110 23 -19 91 -25 91 -8 0 6 6 10 13 10 33 0 47 35 47 115 0 80 -27 266 -40 275 -4 3 -17 38 -29 78 -13 40 -29 78 -36 85 -7 8 -23 38 -36 68 -12 30 -28 59 -35 65 -8 6 -20 24 -28 39 -36 69 -206 242 -281 286 -19 12 -35 24 -35 28 0 4 -34 23 -75 42 -41 19 -75 37 -75 41 0 8 -152 58 -176 58 -7 0 -14 4 -14 9 0 11 -96 28 -205 37 -69 6 -83 4 -103 -12z M188 909 c-16 -6 -31 -22 -37 -41 -32 -91 6 -151 100 -161 69 -7 200 -51 211 -72 5 -8 14 -15 21 -15 7 0 26 -14 42 -30 17 -17 45 -45 63 -62 17 -17 32 -37 32 -44 0 -7 7 -17 15 -22 16 -8 64 -132 65 -164 0 -10 5 -18 10 -18 6 0 10 -20 10 -45 0 -53 16 -92 42 -100 10 -4 18 -11 18 -16 0 -5 16 -9 35 -9 19 0 35 5 35 10 0 6 6 10 14 10 8 0 24 12 36 28 20 24 22 36 17 102 -5 75 -41 220 -55 220 -4 0 -16 23 -27 51 -11 29 -32 63 -47 78 -16 14 -28 30 -28 36 0 13 -104 115 -117 115 -5 0 -22 13 -39 28 -16 16 -54 39 -84 51 -30 13 -58 28 -61 33 -7 10 -181 48 -219 47 -14 0 -37 -5 -52 -10z M219 446 c-53 -14 -114 -72 -123 -118 -18 -89 -3 -143 54 -198 70 -68 180 -68 250 0 57 54 76 136 50 206 -18 46 -82 102 -131 113 -52 12 -43 13 -100 -3z"></path></g></svg>
